<svg width="99" height="143" viewBox="0 0 99 143" fill="none" xmlns="http://www.w3.org/2000/svg">
<path d="M51 51C64.4667 51 75.8 55.0667 85 63.2C94.2 71.2 98.8 82.4 98.8 96.8C98.8 111.2 93.9333 122.467 84.2 130.6C74.6 138.733 62.8 142.8 48.8 142.8C37.4667 142.8 27.4667 140.267 18.8 135.2C10.1333 130.133 3.86667 122.667 7.45058e-08 112.8L23.6 99C27.0667 110.2 35.4667 115.8 48.8 115.8C55.8667 115.8 61.3333 114.133 65.2 110.8C69.2 107.333 71.2 102.667 71.2 96.8C71.2 91.0667 69.2667 86.4667 65.4 83C61.5333 79.5333 56.2667 77.8 49.6 77.8H7.2L12.8 -9.53674e-06H92.2V25.8H38.4L36.6 51H51Z" fill="#D8E9FF"/>
</svg>
