<svg width="102" height="143" viewBox="0 0 102 143" fill="none" xmlns="http://www.w3.org/2000/svg">
<path d="M53 45.4C67.5333 45.8 79.3333 50.5333 88.4 59.6C97.4667 68.5333 102 80 102 94C102 108.267 97.2667 120 87.8 129.2C78.3333 138.267 66.1333 142.8 51.2 142.8C36.2667 142.8 24.0667 138.267 14.6 129.2C5.26667 120.133 0.6 108.4 0.6 94C0.6 83.3333 3.33333 73.9333 8.8 65.8L52.4 -9.53674e-06H84L53 45.4ZM34.6 110.6C39 114.733 44.5333 116.8 51.2 116.8C57.8667 116.8 63.4 114.733 67.8 110.6C72.3333 106.467 74.6 100.933 74.6 94C74.6 87.2 72.3333 81.7333 67.8 77.6C63.4 73.4667 57.8667 71.4 51.2 71.4C44.5333 71.4 39 73.4667 34.6 77.6C30.2 81.6 28 87.0667 28 94C28 100.933 30.2 106.467 34.6 110.6Z" fill="#E0D8FF"/>
</svg>
